PathFileType	4	(X/Y/Z)	Patient5_TMGait_0pt45_1_left_02.trc.trc
DataRate	CameraRate	NumFrames	NumMarkers	Units	OrigDataRate	OrigDataStartFrame	OrigNumFrames
59.322033898305	59.322033898305	7	32	mm	59.322033898305	89	       141
Frame#	Time	R.ASIS			L.ASIS			Chest			R.Shoulder			Neck			L.Shoulder			L.Elbow			L.Wrist			R.Elbow			R.Wrist			L.Thigh.Superior			L.Thigh.Lateral			L.Thigh.Inferior			L.Patella			L.Shank.Superior			L.Shank.Lateral			L.Shank.Inferior			L.Heel			L.Midfoot.Lateral			L.Midfoot.Superior			L.Toe			R.Thigh.Superior			R.Thigh.Lateral			R.Thigh.Inferior			R.Patella			R.Shank.Superior			R.Shank.Lateral			R.Shank.Inferior			R.Heel			R.Midfoot.Lateral			R.Midfoot.Superior			R.Toe			
		X1	Y1	Z1	X2	Y2	Z2	X3	Y3	Z3	X4	Y4	Z4	X5	Y5	Z5	X6	Y6	Z6	X7	Y7	Z7	X8	Y8	Z8	X9	Y9	Z9	X10	Y10	Z10	X11	Y11	Z11	X12	Y12	Z12	X13	Y13	Z13	X14	Y14	Z14	X15	Y15	Z15	X16	Y16	Z16	X17	Y17	Z17	X18	Y18	Z18	X19	Y19	Z19	X20	Y20	Z20	X21	Y21	Z21	X22	Y22	Z22	X23	Y23	Z23	X24	Y24	Z24	X25	Y25	Z25	X26	Y26	Z26	X27	Y27	Z27	X28	Y28	Z28	X29	Y29	Z29	X30	Y30	Z30	X31	Y31	Z31	X32	Y32	Z32	

89	3.183428571429	974.260594909037	973.769237013449	581.794225704157	949.871144032019	951.610403885445	340.970443833913	987.099319365207	1432.077101028252	493.597144964609	884.316421516250	1478.326969283954	665.412860337071	855.160594754845	1545.632049444645	485.345518391027	914.115466498399	1500.658885018507	300.774202720845	868.651957194851	1174.509653425297	168.044975573295	1014.319083435508	927.247319444935	168.029987511799	807.043165961223	1151.996796095393	792.759520806794	1009.733319338521	953.328143140786	731.758721310083	931.469386937108	719.916128659505	343.708525020266	841.083765860116	663.511315579449	304.648671361676	897.386336137204	593.043843090397	366.938133563418	860.609945157241	472.806176807083	372.686902542158	788.042682787197	385.416745935095	392.935955175482	706.719541388954	338.071716607826	312.871615403205	722.003933041781	277.399186212424	400.847484478482	535.271536347514	68.301370188229	389.434537529840	624.823719996514	38.978244028407	333.938521667152	722.355801279690	90.080078736522	381.469638331503	824.781273042198	43.803478998560	390.430602533774	1025.394951072083	749.611062321476	599.578993889133	962.235191437212	660.393685150915	661.844795760795	1043.728364133928	622.331239979146	579.944910712074	1065.310639272591	524.438422805196	610.056286580233	1027.730590219317	418.539614221359	577.134256476284	966.895835035230	346.065854933433	662.853006842545	1019.441581229239	278.860142100184	577.220312425522	908.052647778227	52.454603920187	554.507526121092	990.429800315482	24.498756718768	624.257558109796	1094.835572785323	88.227967846330	595.640103366432	1198.354026124949	43.438107809752	590.675204236313	
90	3.200285714286	974.612658539075	973.153225150296	584.907759641883	950.378934657634	951.677056272281	344.170948254380	989.127364724052	1432.176365218464	497.761061726478	887.519767015913	1477.919995085720	670.225728433540	856.937072663478	1545.833946638037	490.451799339698	914.577115851529	1501.425858180583	305.381455184386	863.203706370689	1176.259305212440	172.673765839500	1004.729225189868	926.665272591086	167.529055210564	814.881269189804	1150.636738245052	797.837680952839	1016.774926713597	952.195427877597	733.451855231729	931.948251156396	720.112052808397	346.575183878540	842.046974887074	663.618071931545	306.994809727437	898.462072184717	593.126736158284	369.234571741933	861.404848226071	471.470668090793	374.387550751860	787.333762762216	385.237830045335	394.368418610961	705.151560114773	339.362457419629	313.916354827347	719.063760429388	278.133107053791	401.492112572144	528.812542256312	72.492722994253	389.512299226689	617.918224471476	41.556383680606	334.042825627127	716.386756265044	90.757824086157	381.371327153411	817.312750203453	43.759599824884	390.414578434394	1025.001446681863	749.657586232264	604.191828885564	960.711070823151	660.634717340246	664.902356107355	1043.446383299803	622.614658134450	584.439675472061	1063.488173301292	524.065152893905	614.033871151426	1025.035074242652	418.384291921322	579.935838185012	963.008710542295	346.311312521569	665.210924082947	1014.905178020018	278.828521085690	579.169922874778	900.593590833622	52.765973749628	554.826659887558	982.835775992073	24.855188226667	624.735524629496	1087.387934724204	88.272380978972	595.969149347606	1190.817495328268	43.308538732444	591.056608498058	
91	3.217142857143	974.486107418431	972.922457707299	588.276701488185	950.679087195722	952.254863398978	347.527400882732	991.377716564289	1432.551255821325	501.945817323224	890.828225275579	1478.066709076671	674.917626100249	859.108126951599	1546.560830930420	495.384864937073	916.004629713552	1502.702877193030	309.980172709949	858.496403048200	1178.713443429069	177.348103509948	994.939460112517	926.439408448732	167.295000995995	822.457029562306	1149.890535002050	802.469806099440	1024.012733589348	952.021069850860	735.250613902940	932.797584018341	720.939926535494	349.251361525177	843.470474324961	664.148925489481	309.155061667669	900.315250261344	593.710528204703	371.173757028099	863.300993811271	470.345590901914	375.489249536174	787.575098567774	385.222610637899	395.272336539512	704.407194442428	341.018046733548	314.617400665770	716.976511314211	279.140817970773	401.701084609168	522.760247359538	77.639274741100	389.521391204572	611.250002534125	44.536504315844	334.135057468008	710.909535895596	91.456098603160	381.159748850233	809.907804300150	43.714795899117	390.424449283111	1024.555594541615	750.113778005215	610.325906833799	958.490838395684	661.159645391012	668.558697246474	1043.379411664231	623.266871395479	590.419729986996	1061.578079987940	524.048033763827	619.498152057026	1022.527317088948	418.615712126529	583.689930826584	958.664215430072	346.943511404359	668.101543712238	1010.456053714886	279.186410040787	582.003463109951	893.163820678431	53.526245358403	555.608331886031	975.279835857327	25.221412061226	625.482301990242	1079.952256434996	88.561750415318	597.106492563498	1183.278539376184	43.526893965454	591.911284681129	
92	3.234000000000	974.051969060172	972.981853711839	591.862689059934	950.789705887578	953.291181426506	351.035954842474	993.753751736582	1433.159175277261	506.120421836505	894.195838960139	1478.694767633882	679.505105677453	861.558700377024	1547.726908910230	500.179026000195	918.170470751263	1504.384876469278	314.558141671094	854.620268672281	1181.785921884692	181.888321299081	985.158286802129	926.570450992203	167.418619882584	829.539388120294	1149.716163397536	806.693609681633	1031.332401361657	952.871250323199	737.193915091657	934.108516851089	722.322356744828	351.594102046729	845.413793258371	665.045849084342	311.026239869743	903.057734984721	594.717201514875	372.558275136451	866.452816005843	469.376883970214	375.736951901713	788.924055002144	385.336794149943	395.475581294110	704.541012011125	343.058156302977	314.913809914983	715.889204477453	280.498373570529	401.469242836216	517.257470195644	83.837418055143	389.500870470505	604.867455737627	47.948750177681	334.238141436853	705.973314681894	92.129378386616	380.827013032677	802.583803145550	43.663571597924	390.467056415064	1023.793987227911	750.638161363907	617.375701030812	955.364552399853	661.683930763695	672.392562316544	1042.875048209276	623.889390846476	597.051957289650	1059.058258334560	524.066375727689	625.558483389531	1019.700545674311	418.953468520909	587.730894869257	953.635004679774	347.630757813724	670.988411324779	1005.781913998430	279.638270388560	585.121683139493	885.745364393159	54.397739062404	556.524489477751	967.744669907570	25.484207955699	626.264025133574	1072.506654548353	88.889825759770	598.555069780157	1175.734817615205	43.858769855685	592.909224435576	
93	3.250857142857	973.487264719901	973.257538030383	595.588131288360	950.708963257311	954.674822371852	354.674378656266	996.162965769050	1433.943873016895	510.271151732797	897.564584385604	1479.698520669616	684.018200109729	864.173238833554	1549.209917106258	504.882484948376	920.782950265174	1506.318765797776	319.114722418276	851.586274601950	1185.317572993587	186.142811386864	975.632147045402	927.028476568179	167.962962558745	835.963217281253	1150.016248128962	810.585702735128	1038.619743234960	954.713052321494	739.319752288223	935.956723040922	724.116409679740	353.490511704799	847.976527802470	666.176466406377	312.509149120872	906.827788261974	596.020232267631	373.229940026363	871.060266824158	468.477066779138	374.940676016548	791.577589470087	385.523970895799	394.856549477271	705.674698459182	345.476535188456	314.765708962469	715.986480461346	282.242388874314	400.793481254889	512.499779093880	91.211539639056	389.494821227424	598.842381619634	51.881152528048	334.376197614749	701.627463312523	92.764820683284	380.376117767374	795.363491313648	43.589551150693	390.547256403966	1022.469165380971	750.994415473435	624.436434860707	951.358882021859	662.059860101198	675.994268102021	1041.344126802185	624.211792448067	603.349216515815	1055.518656096117	523.927693711033	631.231022775822	1016.078620371684	419.221704158249	591.420840422121	947.837334334547	348.163336859395	673.464650761199	1000.587085364201	279.991947207473	587.981675673698	878.306406513442	55.136334665327	557.340608228411	960.200682623130	25.605294714184	626.930594545550	1065.019373465392	89.134052260292	599.920283583660	1168.174946380419	44.158040664215	593.817894455160	
94	3.267714285714	972.943771574062	973.691043442020	599.342008161294	950.407933995661	956.258654008655	358.396887102084	998.529102927022	1434.830899252923	514.395195856509	900.875652950651	1480.949023515894	688.487897484727	866.846767530689	1550.862035148957	509.542693600451	923.544790444850	1508.328799916345	323.651910020035	849.306882592878	1189.102776695447	190.023140947636	966.609139845573	927.765445959703	168.955699216631	841.645077670647	1150.656282142216	814.246348265382	1045.770404453064	957.421873606596	741.661780589444	938.392673409708	726.150727683734	354.850087405724	851.280701233695	667.369456750000	313.504451939944	911.778291682239	597.480835834597	373.065877119235	877.348212271269	467.568115267943	372.987761255760	795.754417240991	385.727286449705	393.344140323745	708.005863084131	348.253544146585	314.136191265069	717.483669606429	284.372417543586	399.645950765860	508.738687566311	99.934092265522	389.516311399741	593.280536136328	56.501315641223	334.551971774666	697.925204597826	93.409554373833	379.808023544976	788.271893939730	43.461511940672	390.662632121146	1020.421931126153	751.051207370926	630.527741500224	946.677534813774	662.257316699830	679.046758886796	1038.383492990882	624.088710128375	608.416547250201	1050.703993316203	523.550041147649	635.673647881945	1011.296030961416	419.348384690316	594.272458245586	941.302099481078	348.448483292914	675.297834980464	994.647977974434	280.163264762839	590.189065815053	870.815687824604	55.604188299059	557.927713074896	952.620634049807	25.596391444072	627.412910525433	1057.464894796911	89.244097130061	600.950736326020	1160.586950017321	44.355532862943	594.508989400749	
95	3.284571428571	972.525111690847	974.218951940349	602.994709238430	949.836771961604	957.880909947542	362.136586617873	1000.797547352783	1435.721885163143	518.489909964310	904.083393573673	1482.299690872494	692.933694848140	869.490181706574	1552.521482271440	514.192891163987	926.206607891796	1510.241070213778	328.165598194730	847.594895284111	1192.919076694941	193.523824442780	958.298939141520	928.724759613932	170.386482493373	846.583607341786	1151.481605394934	817.785349139215	1052.698544587580	960.799985437475	744.243683615501	941.438770266884	728.268774302379	355.595643619985	855.436942350221	668.461423258209	313.919583687609	918.045496763221	598.989222209207	371.977473011028	885.521177316031	466.629031800110	369.858599262434	801.657334772840	385.916953646737	390.924684309476	711.788232741721	351.371806840552	312.981657517449	720.597561962327	286.878729200996	397.987370929097	506.270554934307	110.223537826499	389.515101095968	588.325985221470	62.056212998667	334.727910791608	694.922778944258	94.190265660786	379.110417369214	781.332976232133	43.233849642010	390.798359381960	1017.602072571817	750.753337375646	634.873818307923	941.572350898715	662.314695241451	681.380217174934	1033.813952059426	623.478732940648	611.670707524702	1044.507654636106	522.930794332781	638.370004992949	1005.139137785871	419.343675333869	596.026410168520	934.119623863551	348.484433047613	676.430451984932	987.843634236650	280.159540819330	591.545475301093	863.254098361252	55.760650964157	558.247568850518	944.989624576925	25.494660473964	627.703696135852	1049.833943251730	89.221377721372	601.536957122627	1152.964210728696	44.437598144382	594.942299857863	
